<svg width="28" height="36" viewBox="0 0 28 36" fill="none" xmlns="http://www.w3.org/2000/svg">
<path d="M14 0C10.421 0.00476243 6.99003 1.42861 4.45932 3.95932C1.92861 6.49003 0.504762 9.92104 0.5 13.5C0.5 23.1919 13.0775 35.3306 13.6119 35.8425C13.7158 35.9435 13.8551 36 14 36C14.1449 36 14.2842 35.9435 14.3881 35.8425C14.9225 35.3306 27.5 23.1919 27.5 13.5C27.4952 9.92104 26.0714 6.49003 23.5407 3.95932C21.01 1.42861 17.579 0.00476243 14 0ZM14 19.6875C12.7762 19.6875 11.5799 19.3246 10.5624 18.6447C9.54488 17.9648 8.75181 16.9985 8.2835 15.8679C7.81518 14.7372 7.69265 13.4931 7.93139 12.2929C8.17014 11.0926 8.75944 9.99011 9.62478 9.12477C10.4901 8.25944 11.5926 7.67014 12.7929 7.43139C13.9931 7.19264 15.2372 7.31518 16.3679 7.78349C17.4985 8.25181 18.4648 9.04488 19.1447 10.0624C19.8246 11.0799 20.1875 12.2762 20.1875 13.5C20.1865 15.1407 19.5342 16.7139 18.3741 17.8741C17.2139 19.0342 15.6407 19.6865 14 19.6875Z" fill="black"/>
<path d="M14 19.6875C12.7762 19.6875 11.5799 19.3246 10.5624 18.6447C9.54488 17.9648 8.75181 16.9985 8.2835 15.8679C7.81518 14.7372 7.69265 13.4931 7.93139 12.2929C8.17014 11.0926 8.75944 9.99011 9.62478 9.12477C10.4901 8.25944 11.5926 7.67014 12.7929 7.43139C13.9931 7.19264 15.2372 7.31518 16.3679 7.78349C17.4985 8.25181 18.4648 9.04488 19.1447 10.0624C19.8246 11.0799 20.1875 12.2762 20.1875 13.5C20.1865 15.1407 19.5342 16.7139 18.3741 17.8741C17.2139 19.0342 15.6407 19.6865 14 19.6875Z" fill="white"/>
</svg>
