<svg width="24" height="25" viewBox="0 0 24 25" fill="none" xmlns="http://www.w3.org/2000/svg">
<g clip-path="url(#clip0_505_12730)">
<path d="M0.566625 8.84794C0.199031 9.99956 -4.68667e-05 11.2264 8.276e-09 12.5C-4.68667e-05 13.7736 0.199078 15.0005 0.566672 16.1521L12 16.674L23.4333 16.1522C23.8009 15.0006 24 13.7736 24 12.5001C24 11.2265 23.8009 9.99956 23.4333 8.84789L12 8.32617L0.566625 8.84794Z" fill="#F0F0F0"/>
<path d="M23.4332 8.84789L11.9999 8.32617L0.5665 8.84789C0.457563 9.18933 0.363766 9.53747 0.285156 9.89138H23.7144C23.6359 9.53742 23.5421 9.18923 23.4332 8.84789Z" fill="#D80027"/>
<path d="M0.285156 15.1084C0.363672 15.4623 0.457469 15.8104 0.566406 16.1518L0.567531 16.1519L11.9997 16.6736L23.433 16.1519C23.542 15.8104 23.6358 15.4623 23.7143 15.1084H0.285156Z" fill="#D80027"/>
<path d="M11.9997 24.5002C17.3536 24.5002 21.8878 20.9938 23.433 16.1523H0.566406C2.11164 20.9937 6.64595 24.5002 11.9997 24.5002Z" fill="#6DA544"/>
<path d="M11.9997 0.5C6.64595 0.500047 2.11173 4.00644 0.566406 8.84783L23.433 8.84787C21.8879 4.00639 17.3536 0.499953 11.9997 0.5Z" fill="#338AF3"/>
<path d="M5.48376 5.45618C5.48376 4.33226 6.27365 3.39335 7.32848 3.16301C7.16638 3.12757 6.99815 3.1084 6.82537 3.1084C5.52871 3.1084 4.47754 4.15952 4.47754 5.45623C4.47754 6.75293 5.52862 7.80406 6.82537 7.80406C6.99815 7.80406 7.16634 7.78484 7.32848 7.74945C6.27369 7.51901 5.48376 6.5801 5.48376 5.45618Z" fill="#F0F0F0"/>
<path d="M8.71628 6.52344L8.87519 7.01258H9.3895L8.97344 7.31492L9.13234 7.80406L8.71628 7.50177L8.30012 7.80406L8.45908 7.31492L8.04297 7.01258H8.55728L8.71628 6.52344Z" fill="#F0F0F0"/>
<path d="M10.3578 6.52344L10.5167 7.01258H11.0311L10.6149 7.31492L10.7739 7.80406L10.3578 7.50177L9.94168 7.80406L10.1006 7.31492L9.68457 7.01258H10.1988L10.3578 6.52344Z" fill="#F0F0F0"/>
<path d="M11.9995 6.52344L12.1584 7.01258H12.6727L12.2566 7.31492L12.4155 7.80406L11.9995 7.50177L11.5833 7.80406L11.7423 7.31492L11.3262 7.01258H11.8405L11.9995 6.52344Z" fill="#F0F0F0"/>
<path d="M13.6411 6.52344L13.8 7.01258H14.3143L13.8982 7.31492L14.0572 7.80406L13.6411 7.50177L13.2249 7.80406L13.3839 7.31492L12.9678 7.01258H13.4821L13.6411 6.52344Z" fill="#F0F0F0"/>
<path d="M15.2826 6.52344L15.4415 7.01258H15.9559L15.5398 7.31492L15.6987 7.80406L15.2826 7.50177L14.8665 7.80406L15.0254 7.31492L14.6094 7.01258H15.1236L15.2826 6.52344Z" fill="#F0F0F0"/>
<path d="M10.3578 4.81641L10.5167 5.3055H11.0311L10.6149 5.60789L10.7739 6.09698L10.3578 5.79469L9.94168 6.09698L10.1006 5.60789L9.68457 5.3055H10.1988L10.3578 4.81641Z" fill="#F0F0F0"/>
<path d="M11.9995 4.81641L12.1584 5.3055H12.6727L12.2566 5.60789L12.4155 6.09698L11.9995 5.79469L11.5833 6.09698L11.7423 5.60789L11.3262 5.3055H11.8405L11.9995 4.81641Z" fill="#F0F0F0"/>
<path d="M13.6411 4.81641L13.8 5.3055H14.3143L13.8982 5.60789L14.0572 6.09698L13.6411 5.79469L13.2249 6.09698L13.3839 5.60789L12.9678 5.3055H13.4821L13.6411 4.81641Z" fill="#F0F0F0"/>
<path d="M15.2826 4.81641L15.4415 5.3055H15.9559L15.5398 5.60789L15.6987 6.09698L15.2826 5.79469L14.8665 6.09698L15.0254 5.60789L14.6094 5.3055H15.1236L15.2826 4.81641Z" fill="#F0F0F0"/>
<path d="M11.9995 3.1084L12.1584 3.59759H12.6727L12.2566 3.89988L12.4155 4.38907L11.9995 4.08677L11.5833 4.38907L11.7423 3.89988L11.3262 3.59759H11.8405L11.9995 3.1084Z" fill="#F0F0F0"/>
<path d="M13.6411 3.1084L13.8 3.59759H14.3143L13.8982 3.89988L14.0572 4.38907L13.6411 4.08677L13.2249 4.38907L13.3839 3.89988L12.9678 3.59759H13.4821L13.6411 3.1084Z" fill="#F0F0F0"/>
<path d="M15.2826 3.1084L15.4415 3.59759H15.9559L15.5398 3.89988L15.6987 4.38907L15.2826 4.08677L14.8665 4.38907L15.0254 3.89988L14.6094 3.59759H15.1236L15.2826 3.1084Z" fill="#F0F0F0"/>
</g>
<defs>
<clipPath id="clip0_505_12730">
<rect width="24" height="24" fill="white" transform="translate(0 0.5)"/>
</clipPath>
</defs>
</svg>
